<svg width="30" height="30" viewBox="0 0 30 30" fill="none" xmlns="http://www.w3.org/2000/svg">
<g clip-path="url(#clip0_1_174)">
<rect width="30" height="30" rx="15" fill="url(#paint0_linear_1_174)"/>
<path d="M18.5815 15.5346C17.2995 16.6239 16.2546 17.9029 15.4683 19.3455C15.4194 19.4352 15.3719 19.5248 15.326 19.6145C15.2801 19.5248 15.2327 19.4352 15.1838 19.3455C14.3408 17.7981 13.1996 16.439 11.7876 15.2998C12.5732 13.6962 13.7167 12.2646 15.1287 11.087C16.608 12.3221 17.7936 13.8359 18.5815 15.5346Z" fill="white"/>
<path d="M15.1287 29.7539C15.0545 29.7642 14.9803 29.7744 14.9061 29.7833C14.8985 29.7847 14.8916 29.7861 14.8839 29.7861C14.7072 29.8093 14.5306 29.8285 14.3531 29.8443C14.1435 29.8641 13.9332 29.8792 13.7236 29.8902C10.384 30.0654 6.9626 29.1952 4.11947 27.2069C0.875498 24.9379 -0.973235 21.6638 -1.30444 18.261C0.600925 17.9912 2.56441 18.0652 4.45985 18.4979C4.67021 18.5458 4.87903 18.5985 5.08785 18.6553C6.71629 19.0997 8.28282 19.8145 9.70403 20.8086C9.8027 20.8778 9.90061 20.9476 9.99621 21.0182C10.2203 21.1838 10.4368 21.3536 10.6464 21.5282C12.0982 22.7367 13.2119 24.1656 13.9714 25.7116V25.7123C14.477 26.7406 14.8274 27.819 15.0163 28.9199C15.0637 29.1966 15.1012 29.4746 15.1287 29.7539Z" fill="white"/>
<path d="M25.6056 18.0685C23.7974 18.5335 22.097 19.3099 20.571 20.3766C20.4708 20.4464 20.3721 20.5176 20.2742 20.5895C20.0585 20.7484 19.8489 20.9113 19.6455 21.0791C18.4484 22.0643 17.4509 23.2063 16.6715 24.4867C16.5897 23.0461 16.2486 21.6439 15.6565 20.304C15.7682 20.063 15.8883 19.8227 16.0183 19.5851C16.7473 18.2486 17.7019 17.0765 18.8209 16.0892C18.9792 15.9495 19.1406 15.8132 19.3059 15.6811C20.8624 14.4309 22.6982 13.5141 24.6655 12.976C25.357 14.587 25.6844 16.3206 25.6056 18.0685Z" fill="white"/>
<path d="M16.0717 25.589V25.5897C16.0342 26.5948 15.8644 27.5883 15.5692 28.5502C15.5027 28.2099 15.4215 27.8731 15.3259 27.5397C15.1347 26.8735 14.8861 26.2223 14.5802 25.5897C14.4188 25.2542 14.2413 24.9235 14.0478 24.5983C14.0256 24.5606 14.0034 24.5236 13.9805 24.4867C13.1138 23.0633 11.978 21.8103 10.5981 20.7545C10.429 20.6258 10.2569 20.4998 10.081 20.3766C10.0481 20.3533 10.0145 20.3307 9.98155 20.3088C8.48159 19.2763 6.81566 18.5232 5.04641 18.0685C4.96765 16.3206 5.29502 14.587 5.98647 12.976C7.83141 13.4806 9.56011 14.3179 11.0517 15.4511C11.2176 15.577 11.3798 15.7064 11.5397 15.8393C12.7857 16.8772 13.8428 18.1343 14.6337 19.5851C14.7637 19.8227 14.8838 20.063 14.9955 20.304C15.1163 20.5642 15.2265 20.8257 15.3259 21.0886C15.8874 22.5682 16.1268 24.091 16.0717 25.589Z" fill="white"/>
<path d="M31.9564 18.261C31.6252 21.6638 29.7765 24.9379 26.5325 27.2069C23.6894 29.1952 20.268 30.0654 16.9284 29.8901H16.9253C16.5987 29.873 16.2721 29.8456 15.947 29.8073C15.8874 29.8011 15.8277 29.7943 15.7681 29.786C15.7849 29.7477 15.8002 29.7094 15.8155 29.671V29.6704C15.9249 29.3979 16.0243 29.1233 16.113 28.8467C16.4427 27.8231 16.6324 26.7742 16.6806 25.7116V25.7109C17.3621 24.3244 18.3274 23.0325 19.5673 21.9096C19.783 21.7131 20.0079 21.5221 20.2412 21.3365C20.4684 21.1551 20.7047 20.9791 20.948 20.8086C22.3692 19.8145 23.9357 19.0997 25.5642 18.6553C25.773 18.5985 25.9818 18.5458 26.1922 18.4978C28.0876 18.0652 30.0511 17.9912 31.9564 18.261Z" fill="white"/>
</g>
<rect x="0.5" y="0.5" width="29" height="29" rx="14.5" stroke="#544171"/>
<defs>
<linearGradient id="paint0_linear_1_174" x1="30" y1="-4.56522" x2="4.23913" y2="32.2826" gradientUnits="userSpaceOnUse">
<stop stop-color="#AA47FE"/>
<stop offset="1" stop-color="#7E71FE"/>
</linearGradient>
<clipPath id="clip0_1_174">
<rect width="30" height="30" rx="15" fill="white"/>
</clipPath>
</defs>
</svg>
