<svg width="158" height="158" viewBox="0 0 158 158" fill="none" xmlns="http://www.w3.org/2000/svg">
<path d="M91.6845 57.793C86.0314 62.5878 81.4243 68.2178 77.9573 74.5676C77.7414 74.9625 77.5323 75.3574 77.3298 75.7522C77.1274 75.3574 76.9183 74.9625 76.7024 74.5676C72.9858 67.7567 67.9535 61.7742 61.7273 56.7594C65.1914 49.701 70.2335 43.3992 76.4597 38.2156C82.9826 43.6524 88.2102 50.3157 91.6845 57.793Z" fill="#9E53FE"/>
<path d="M76.4607 120.383C76.1334 120.428 75.8062 120.474 75.4789 120.513C75.4455 120.519 75.4149 120.525 75.3811 120.525C74.6021 120.627 73.8231 120.712 73.0404 120.781C72.1166 120.868 71.1889 120.935 70.2648 120.983C55.5391 121.754 40.4527 117.924 27.9163 109.172C13.6123 99.1841 5.46043 84.7725 4 69.7939C12.4015 68.6064 21.0594 68.932 29.4171 70.8367C30.3447 71.0478 31.2655 71.2796 32.1863 71.5299C39.3667 73.4857 46.2741 76.6323 52.5408 81.0082C52.976 81.3124 53.4076 81.62 53.8293 81.9304C54.8174 82.6598 55.7719 83.4071 56.6962 84.1755C63.0976 89.4951 68.0084 95.7847 71.3576 102.59C73.5869 107.117 75.1318 111.866 75.9647 116.712C76.1739 117.93 76.3389 119.154 76.4607 120.383Z" fill="#7778FE"/>
<path d="M122.657 68.9468C114.683 70.9933 107.186 74.411 100.457 79.1065C100.015 79.4138 99.5802 79.7272 99.1484 80.0438C98.1973 80.7429 97.2732 81.4599 96.3761 82.1986C91.0976 86.5354 86.6996 91.5623 83.2627 97.198C82.9018 90.8571 81.3977 84.6848 78.7871 78.7871C79.2794 77.726 79.809 76.6682 80.3825 75.6223C83.5967 69.7396 87.8058 64.58 92.74 60.2341C93.4383 59.6193 94.1499 59.0195 94.8785 58.4378C101.742 52.9348 109.837 48.8992 118.512 46.5305C121.561 53.6218 123.004 61.2528 122.657 68.9468Z" fill="#7A75FE"/>
<path d="M80.6183 102.05V102.053C80.453 106.478 79.7043 110.851 78.4024 115.085C78.1089 113.587 77.7513 112.104 77.3299 110.637C76.4868 107.704 75.3904 104.838 74.0412 102.053C73.3297 100.577 72.5473 99.121 71.694 97.6894C71.5959 97.5236 71.4981 97.3608 71.3972 97.1983C67.5757 90.9326 62.5671 85.4171 56.4828 80.7702C55.7373 80.2035 54.9785 79.649 54.2026 79.1062C54.0578 79.0041 53.9093 78.9047 53.7643 78.8082C47.1501 74.2634 39.8044 70.9481 32.0031 68.9469C31.6558 61.2528 33.0994 53.622 36.1483 46.5305C44.2834 48.7517 51.906 52.4375 58.4828 57.4254C59.2146 57.9798 59.9298 58.5494 60.6346 59.1341C66.1287 63.7029 70.7899 69.2365 74.2773 75.6226C74.8509 76.6682 75.3802 77.726 75.8728 78.7868C76.4055 79.9322 76.8913 81.0834 77.3299 82.2407C79.8052 88.7537 80.8612 95.4563 80.6183 102.05Z" fill="#43A9FE"/>
<path d="M150.661 69.7939C149.201 84.7725 141.049 99.1844 126.745 109.172C114.208 117.924 99.1221 121.754 84.3964 120.983H84.3829C82.9426 120.907 81.5024 120.787 80.0692 120.618C79.806 120.591 79.5429 120.561 79.28 120.525C79.354 120.356 79.4214 120.187 79.4889 120.019V120.016C79.9713 118.816 80.4099 117.607 80.8012 116.39C82.2544 111.884 83.0911 107.267 83.3036 102.59C86.3086 96.4869 90.5652 90.7971 96.0324 85.8543C96.9835 84.9894 97.9753 84.1486 99.004 83.3319C100.006 82.5332 101.048 81.7586 102.12 81.0082C108.387 76.6321 115.294 73.4857 122.475 71.5299C123.396 71.2796 124.317 71.0478 125.244 70.8367C133.602 68.932 142.26 68.6064 150.661 69.7939Z" fill="#42ABFE"/>
</svg>
